#tb 0: 1/48000
#media_type 0: audio
#codec_id 0: pcm_s24le
#sample_rate 0: 48000
#channel_layout_name 0: stereo
0,          0,          0,      512,     3072, 0x00000000
0,        512,        512,      512,     3072, 0x00000000
0,       1024,       1024,      512,     3072, 0x1bf4e1f9
0,       1536,       1536,      512,     3072, 0x89a1d6cd
0,       2048,       2048,      512,     3072, 0xf088ee73
0,       2560,       2560,      512,     3072, 0x401cc303
